<svg xmlns="http://www.w3.org/2000/svg" xmlns:svg="http://www.w3.org/2000/svg" id="svg4485" width="1116.537" height="64" version="1.1" viewBox="0 0 1116.537 64"><metadata id="metadata4491"/><g id="g5472" transform="translate(0,3.2401047)"><g id="g5318" transform="translate(-8.3787758,-966.40258)"><rect id="rect4501" width="9.247" height="9.247" x="27.755" y="998.539" style="opacity:1;fill:none;fill-opacity:1;fill-rule:nonzero;stroke:#000;stroke-width:3;stroke-linecap:square;stroke-linejoin:miter;stroke-miterlimit:4;stroke-dasharray:none;stroke-dashoffset:0;stroke-opacity:1;paint-order:normal"/><rect id="rect4513" width="9.247" height="9.247" x="11.755" y="1014.539" style="opacity:1;fill:none;fill-opacity:1;fill-rule:nonzero;stroke:#000;stroke-width:3;stroke-linecap:square;stroke-linejoin:miter;stroke-miterlimit:4;stroke-dasharray:none;stroke-dashoffset:0;stroke-opacity:1;paint-order:normal"/><rect style="opacity:1;fill:none;fill-opacity:1;fill-rule:nonzero;stroke:#000;stroke-width:3;stroke-linecap:square;stroke-linejoin:miter;stroke-miterlimit:4;stroke-dasharray:none;stroke-dashoffset:0;stroke-opacity:1;paint-order:normal" id="rect4515" width="9.247" height="9.247" x="27.755" y="1014.539"/><rect style="opacity:1;fill:none;fill-opacity:1;fill-rule:nonzero;stroke:#000;stroke-width:3;stroke-linecap:square;stroke-linejoin:miter;stroke-miterlimit:4;stroke-dasharray:none;stroke-dashoffset:0;stroke-opacity:1;paint-order:normal" id="rect4519" width="9.247" height="9.247" x="11.755" y="998.539"/></g><rect id="rect5360" width="32" height="32" x="0" y="28.76" style="opacity:1;fill:none;fill-opacity:1;fill-rule:nonzero;stroke:none;stroke-width:3;stroke-linecap:round;stroke-linejoin:round;stroke-miterlimit:4;stroke-dasharray:none;stroke-dashoffset:0;stroke-opacity:1;paint-order:normal"/></g><g id="g5478" transform="translate(0,3.6478805)"><g id="g5322" transform="translate(-8.3787758,-966.40258)"><path style="fill:none;stroke:#000;stroke-width:5;stroke-linecap:round;stroke-linejoin:miter;stroke-miterlimit:4;stroke-dasharray:none;stroke-opacity:1" id="path4507" d="M 84.166529,1022.8327 69.433468,1008.4131"/><path style="fill:#000;fill-opacity:1;stroke:none;stroke-width:1px;stroke-linecap:butt;stroke-linejoin:miter;stroke-opacity:1" id="path4523" d="m 64.778344,1000.0771 c 0.15838,-2.21589 0.892654,-3.97239 4.064921,-3.9244 l 5.79089,5.4089 -0.06518,5.0971 -6.56108,6.4293 -4.0079,0.3962 -6.391837,-5.0204 c 0.003,-1.8969 0.615654,-4.5976 3.391837,-4.2539 l 3.804082,2.5118 c 1.756369,-0.3456 2.524226,-1.6258 3.156295,-3.1014 z"/></g><rect style="opacity:1;fill:none;fill-opacity:1;fill-rule:nonzero;stroke:none;stroke-width:3;stroke-linecap:round;stroke-linejoin:round;stroke-miterlimit:4;stroke-dasharray:none;stroke-dashoffset:0;stroke-opacity:1;paint-order:normal" id="rect5362" width="32" height="32" x="47.771" y="28.352"/></g><g id="g5484" transform="translate(0,1.8732223)"><g id="g5326" transform="translate(-8.3787758,-966.40258)"><path style="fill:none;stroke:#000;stroke-width:3;stroke-linecap:butt;stroke-linejoin:miter;stroke-miterlimit:4;stroke-dasharray:none;stroke-opacity:1" id="path4509" d="m 124.017,1012.8017 9.67769,-13.7927 H 108.6116 l 9.37299,13.931 v 13.1097 h 6.03241 z"/><path style="fill:none;stroke:#000;stroke-width:3;stroke-linecap:butt;stroke-linejoin:miter;stroke-miterlimit:4;stroke-dasharray:none;stroke-opacity:1" id="path4525" d="m 116.70205,1019.6217 h 7.31466"/></g><rect id="rect5364" width="32" height="32" x="96.808" y="30.127" style="opacity:1;fill:none;fill-opacity:1;fill-rule:nonzero;stroke:none;stroke-width:3;stroke-linecap:round;stroke-linejoin:round;stroke-miterlimit:4;stroke-dasharray:none;stroke-dashoffset:0;stroke-opacity:1;paint-order:normal"/></g><g id="g5490" transform="translate(0,3.322319)"><g id="g5330" transform="translate(-8.3787758,-966.40258)"><path style="opacity:1;fill:#000;fill-opacity:1;fill-rule:nonzero;stroke:none;stroke-width:3;stroke-linecap:round;stroke-linejoin:round;stroke-miterlimit:4;stroke-dasharray:none;stroke-dashoffset:0;stroke-opacity:1;paint-order:normal" id="rect4527" d="m 155.38109,1005.6573 14.74014,12.3019 14.29684,-12.3019 v 16.8459 h -29.03698 z"/><path id="path4532" d="m 155.38109,1002.206 14.74014,12.8565 14.29684,-12.8565 v -2.5487 h -29.03698 z" style="opacity:1;fill:#000;fill-opacity:1;fill-rule:nonzero;stroke:none;stroke-width:3;stroke-linecap:round;stroke-linejoin:round;stroke-miterlimit:4;stroke-dasharray:none;stroke-dashoffset:0;stroke-opacity:1;paint-order:normal"/></g><rect style="opacity:1;fill:none;fill-opacity:1;fill-rule:nonzero;stroke:none;stroke-width:3;stroke-linecap:round;stroke-linejoin:round;stroke-miterlimit:4;stroke-dasharray:none;stroke-dashoffset:0;stroke-opacity:1;paint-order:normal" id="rect5366" width="32" height="32" x="145.521" y="28.678"/></g><g id="g5497" transform="translate(0,3.5476608)"><g id="g5335" transform="translate(-8.3787758,-966.40258)"><circle style="opacity:1;fill:#000;fill-opacity:1;fill-rule:nonzero;stroke:none;stroke-width:3;stroke-linecap:round;stroke-linejoin:round;stroke-miterlimit:4;stroke-dasharray:none;stroke-dashoffset:0;stroke-opacity:1;paint-order:normal" id="path4534" cx="210.024" cy="1019.403" r="5.799"/><circle id="circle4536" cx="227.511" cy="1019.403" r="5.799" style="opacity:1;fill:#000;fill-opacity:1;fill-rule:nonzero;stroke:none;stroke-width:3;stroke-linecap:round;stroke-linejoin:round;stroke-miterlimit:4;stroke-dasharray:none;stroke-dashoffset:0;stroke-opacity:1;paint-order:normal"/><path style="opacity:1;fill:none;fill-opacity:1;fill-rule:nonzero;stroke:#000;stroke-width:2.77122235;stroke-linecap:round;stroke-linejoin:round;stroke-miterlimit:4;stroke-dasharray:none;stroke-dashoffset:0;stroke-opacity:1;paint-order:normal" id="rect4538" d="m 214.45548,1019.7112 v -19.81316 c 0,-1.11042 0.86314,-2.00436 1.93529,-2.00436 h 13.59886 c 1.07214,0 1.93528,0.89394 1.93528,2.00436 v 19.81316"/></g><rect id="rect5368" width="32" height="32" x="194.389" y="28.452" style="opacity:1;fill:none;fill-opacity:1;fill-rule:nonzero;stroke:none;stroke-width:3;stroke-linecap:round;stroke-linejoin:round;stroke-miterlimit:4;stroke-dasharray:none;stroke-dashoffset:0;stroke-opacity:1;paint-order:normal"/></g><g id="g5501" transform="translate(0,3.1662521)"><path id="rect4181" d="m 251.48461,45.034419 c 0.4638,-10.8715 12.40207,-12.59447 15.43885,-2.5078 2.73388,0.2127 5.14555,2.6373 5.18665,5.068 0,3.4504 -2.90742,6.2281 -6.51889,6.2281 h -16.54418 c -5.83464,-1.7769 -4.57322,-9.6738 2.43757,-8.7883 z" style="opacity:1;fill:none;fill-opacity:1;stroke:#000;stroke-width:2.46805668;stroke-miterlimit:4;stroke-dasharray:none;stroke-dashoffset:0;stroke-opacity:1"/><rect style="opacity:1;fill:none;fill-opacity:1;fill-rule:nonzero;stroke:none;stroke-width:3;stroke-linecap:round;stroke-linejoin:round;stroke-miterlimit:4;stroke-dasharray:none;stroke-dashoffset:0;stroke-opacity:1;paint-order:normal" id="rect5370" width="32" height="32" x="242.733" y="28.834"/></g><g id="g5506" transform="translate(0,2.188591)"><g id="g5338" transform="translate(-8.3787758,-966.40258)"><path style="fill:none;stroke:#000;stroke-width:3;stroke-linecap:butt;stroke-linejoin:miter;stroke-miterlimit:4;stroke-dasharray:none;stroke-opacity:1" id="path5197" d="m 302.67171,1006.3777 22.49812,12.0249 -9.75572,5.6324 v -23.642 l 9.85555,5.6901 -22.32088,12.5411"/></g><rect id="rect5372" width="32" height="32" x="290.754" y="29.811" style="opacity:1;fill:none;fill-opacity:1;fill-rule:nonzero;stroke:none;stroke-width:3;stroke-linecap:round;stroke-linejoin:round;stroke-miterlimit:4;stroke-dasharray:none;stroke-dashoffset:0;stroke-opacity:1;paint-order:normal"/></g><g id="g5514" transform="translate(0,3.6180954)"><g id="g5344" transform="translate(-8.3787758,-966.40258)"><rect style="opacity:1;fill:#000;fill-opacity:1;fill-rule:nonzero;stroke:none;stroke-width:3.30289125;stroke-linecap:round;stroke-linejoin:round;stroke-miterlimit:4;stroke-dasharray:none;stroke-dashoffset:0;stroke-opacity:1;paint-order:normal" id="rect5199" width="19.592" height="14.42" x="355.709" y="1002.318"/><path style="fill:none;stroke:#000;stroke-width:3;stroke-linecap:butt;stroke-linejoin:miter;stroke-miterlimit:4;stroke-dasharray:none;stroke-opacity:1" id="path5201" d="m 373.79839,1003.2635 v -5.25054 h 7.75837"/><circle style="opacity:1;fill:none;fill-opacity:1;fill-rule:nonzero;stroke:#000;stroke-width:3;stroke-linecap:round;stroke-linejoin:round;stroke-miterlimit:4;stroke-dasharray:none;stroke-dashoffset:0;stroke-opacity:1;paint-order:normal" id="path5207" cx="357.12" cy="1020.891" r="2.664"/><circle id="circle5209" cx="374.65" cy="1020.891" r="2.664" style="opacity:1;fill:none;fill-opacity:1;fill-rule:nonzero;stroke:#000;stroke-width:3;stroke-linecap:round;stroke-linejoin:round;stroke-miterlimit:4;stroke-dasharray:none;stroke-dashoffset:0;stroke-opacity:1;paint-order:normal"/></g><rect style="opacity:1;fill:none;fill-opacity:1;fill-rule:nonzero;stroke:none;stroke-width:3;stroke-linecap:round;stroke-linejoin:round;stroke-miterlimit:4;stroke-dasharray:none;stroke-dashoffset:0;stroke-opacity:1;paint-order:normal" id="rect5374" width="32" height="32" x="342.877" y="28.382"/></g><g id="g5520" transform="translate(0,3.3700485)"><g id="g5348" transform="translate(-8.3787758,-966.40258)"><path style="opacity:1;fill:none;fill-opacity:1;fill-rule:nonzero;stroke:#000;stroke-width:3;stroke-linecap:round;stroke-linejoin:round;stroke-miterlimit:4;stroke-dasharray:none;stroke-dashoffset:0;stroke-opacity:1;paint-order:normal" id="path5211" d="m 423.9111,999.19805 c 4.9899,1.81935 7.7689,6.19995 7.7689,11.81915 0,7.1847 -5.8243,13.009 -13.009,13.009 -7.1847,0 -13.009,-5.8243 -13.009,-13.009 0,-5.2414 3.0998,-9.7589 7.5661,-11.81915"/><rect style="opacity:1;fill:#000;fill-opacity:1;fill-rule:nonzero;stroke:none;stroke-width:3.90877056;stroke-linecap:round;stroke-linejoin:round;stroke-miterlimit:4;stroke-dasharray:none;stroke-dashoffset:0;stroke-opacity:1;paint-order:normal" id="rect5214" width="3" height="14.322" x="417.205" y="996.539"/></g><rect id="rect5376" width="32" height="32" x="394.292" y="28.63" style="opacity:1;fill:none;fill-opacity:1;fill-rule:nonzero;stroke:none;stroke-width:3;stroke-linecap:round;stroke-linejoin:round;stroke-miterlimit:4;stroke-dasharray:none;stroke-dashoffset:0;stroke-opacity:1;paint-order:normal"/></g><g id="g5528" transform="translate(0,1.3681564)"><g id="g5354" transform="translate(-8.3787758,-966.40258)"><path style="fill:none;stroke:#000;stroke-width:3;stroke-linecap:butt;stroke-linejoin:miter;stroke-miterlimit:4;stroke-dasharray:none;stroke-opacity:1" id="path5250" d="m 461.313,1007.55 7.71825,-7.7187 H 486.75 v 26.4062 h -25.437 z"/><path style="fill:none;stroke:#000;stroke-width:3;stroke-linecap:butt;stroke-linejoin:miter;stroke-miterlimit:4;stroke-dasharray:none;stroke-opacity:1" id="path5252" d="m 466.625,1002.4875 v 5.625 h 14.1875 v -7.5625"/><rect style="opacity:1;fill:#000;fill-opacity:1;fill-rule:nonzero;stroke:none;stroke-width:2.85498571;stroke-linecap:round;stroke-linejoin:round;stroke-miterlimit:4;stroke-dasharray:none;stroke-dashoffset:0;stroke-opacity:1;paint-order:normal" id="rect5254" width="3" height="3" x="469.434" y="1002.733"/><path id="path5256" d="m 466.625,1025.1125 v -7.9375 h 14.1875 v 7.875" style="fill:none;stroke:#000;stroke-width:3;stroke-linecap:butt;stroke-linejoin:miter;stroke-miterlimit:4;stroke-dasharray:none;stroke-opacity:1"/></g><rect style="opacity:1;fill:none;fill-opacity:1;fill-rule:nonzero;stroke:none;stroke-width:3;stroke-linecap:round;stroke-linejoin:round;stroke-miterlimit:4;stroke-dasharray:none;stroke-dashoffset:0;stroke-opacity:1;paint-order:normal" id="rect5378" width="32" height="32" x="449.653" y="30.632"/></g><g id="g5534" transform="translate(0,2.5602951)"><g id="g5358" transform="translate(-8.3787758,-972.40258)"><path id="rect5216" d="m 510.7344,1007.7803 h 6.307 c 1.108,0 2,0.892 2,2 0.058,1.9158 0.4001,5.5746 -2,5.6471 l -6.307,-4e-4 h -2.0004 v -1.9996 l 4e-4,-3.6471 c 1e-4,-1.108 0.892,-2 2,-2 z m 3.3587,3.7123 h 13.2014 c 1.108,0 2.001,0.8774 2.0005,1.9674 v 1.967 h -2.0005 l -13.2014,5e-4 c -1.108,0 -2,-0.8775 -2,-1.9674 0,-1.09 0.892,-1.9674 2,-1.9674 z" style="opacity:1;fill:#000;fill-opacity:1;fill-rule:nonzero;stroke:none;stroke-width:3;stroke-linecap:round;stroke-linejoin:round;stroke-miterlimit:4;stroke-dasharray:none;stroke-dashoffset:0;stroke-opacity:1;paint-order:normal"/><path style="opacity:1;fill:#000;fill-opacity:1;fill-rule:nonzero;stroke:none;stroke-width:3;stroke-linecap:round;stroke-linejoin:round;stroke-miterlimit:4;stroke-dasharray:none;stroke-dashoffset:0;stroke-opacity:1;paint-order:normal" id="rect5242" d="m 508.8555,1017.2315 v 8.6728 c 0,1.108 0.892,2 2,2 h 16.5957 c 1.108,0 2,-0.892 2,-2 v -8.6728 z"/></g><rect id="rect5380" width="32" height="32" x="494.714" y="29.44" style="opacity:1;fill:none;fill-opacity:1;fill-rule:nonzero;stroke:none;stroke-width:3;stroke-linecap:round;stroke-linejoin:round;stroke-miterlimit:4;stroke-dasharray:none;stroke-dashoffset:0;stroke-opacity:1;paint-order:normal"/></g><g id="g3966"><path id="path5258" d="m 679.76049,43.397888 c -11.16654,-4.90607 -6.54023,-14.887481 0.0528,-8.582499 6.18385,-6.259313 11.86465,3.625989 -0.0528,8.582499 z" style="fill:none;stroke:#000;stroke-width:2.2720654;stroke-linecap:butt;stroke-linejoin:miter;stroke-miterlimit:4;stroke-dasharray:none;stroke-opacity:1"/><rect id="rect5399" width="32" height="32" x="663.873" y="22.143" style="opacity:1;fill:none;fill-opacity:1;fill-rule:nonzero;stroke:none;stroke-width:3;stroke-linecap:round;stroke-linejoin:round;stroke-miterlimit:4;stroke-dasharray:none;stroke-dashoffset:0;stroke-opacity:1;paint-order:normal"/></g><g id="g3970"><rect id="rect5260" width="13.875" height="13.875" x="730.559" y="30.21" rx="2" ry="2" style="opacity:1;fill:#000;fill-opacity:1;fill-rule:nonzero;stroke:none;stroke-width:3;stroke-linecap:round;stroke-linejoin:round;stroke-miterlimit:4;stroke-dasharray:none;stroke-dashoffset:0;stroke-opacity:1;paint-order:normal"/><rect style="opacity:1;fill:none;fill-opacity:1;fill-rule:nonzero;stroke:none;stroke-width:3;stroke-linecap:round;stroke-linejoin:round;stroke-miterlimit:4;stroke-dasharray:none;stroke-dashoffset:0;stroke-opacity:1;paint-order:normal" id="rect5405" width="32" height="32" x="721.496" y="21.147"/></g><g id="g3976"><g id="g5275" transform="matrix(0.92512795,0,0,0.92512795,49.646365,-1594.3495)"><path style="opacity:1;fill:#000;fill-opacity:1;fill-rule:nonzero;stroke:none;stroke-width:1.84269726;stroke-linecap:round;stroke-linejoin:round;stroke-miterlimit:4;stroke-dasharray:none;stroke-dashoffset:0;stroke-opacity:1;paint-order:normal" id="path5264" d="m 809.37017,1768.9096 h -8.55767 -8.55877 v -4.1758 l 8.55877,-10.6475 8.55767,10.6475 z" transform="matrix(0,-0.65656157,0.65656157,0,-358.61037,2289.4994)"/><path id="path5267" d="m 810.35019,1758.0981 v 5.6186 5.6193 h -2.74167 l -6.99073,-5.6193 6.99073,-5.6186 z" style="opacity:1;fill:#000;fill-opacity:1;fill-rule:nonzero;stroke:none;stroke-width:1.20984423;stroke-linecap:round;stroke-linejoin:round;stroke-miterlimit:4;stroke-dasharray:none;stroke-dashoffset:0;stroke-opacity:1;paint-order:normal"/></g><rect id="rect5407" width="32" height="32" x="777.324" y="21.314" style="opacity:1;fill:none;fill-opacity:1;fill-rule:nonzero;stroke:none;stroke-width:3;stroke-linecap:round;stroke-linejoin:round;stroke-miterlimit:4;stroke-dasharray:none;stroke-dashoffset:0;stroke-opacity:1;paint-order:normal"/></g><g id="g3988"><g id="g5281" transform="matrix(-0.92512795,0,0,0.92512795,1729.0016,-1594.3495)"><path id="path5277" d="m 809.37017,1768.9096 h -8.55767 -8.55877 v -4.1758 l 8.55877,-10.6475 8.55767,10.6475 z" transform="matrix(0,-0.65656157,0.65656157,0,-358.61037,2289.4994)" style="opacity:1;fill:#000;fill-opacity:1;fill-rule:nonzero;stroke:none;stroke-width:1.84269726;stroke-linecap:round;stroke-linejoin:round;stroke-miterlimit:4;stroke-dasharray:none;stroke-dashoffset:0;stroke-opacity:1;paint-order:normal"/><path style="opacity:1;fill:#000;fill-opacity:1;fill-rule:nonzero;stroke:none;stroke-width:1.20984423;stroke-linecap:round;stroke-linejoin:round;stroke-miterlimit:4;stroke-dasharray:none;stroke-dashoffset:0;stroke-opacity:1;paint-order:normal" id="path5279" d="m 810.35019,1758.0981 v 5.6186 5.6193 h -2.74167 l -6.99073,-5.6193 6.99073,-5.6186 z"/></g><rect style="opacity:1;fill:none;fill-opacity:1;fill-rule:nonzero;stroke:none;stroke-width:3;stroke-linecap:round;stroke-linejoin:round;stroke-miterlimit:4;stroke-dasharray:none;stroke-dashoffset:0;stroke-opacity:1;paint-order:normal" id="rect5409" width="32" height="32" x="969.324" y="21.314"/></g><g id="g3996"><g id="g5386" transform="matrix(0.61777671,0,0,0.61777671,393.26213,-582.60358)"><path style="fill:none;stroke:#000;stroke-width:3;stroke-linecap:round;stroke-linejoin:round;stroke-miterlimit:4;stroke-dasharray:none;stroke-opacity:1" id="path5283" d="m 1057,996.9258 h -11 c -1.7949,2e-4 -3.2498,1.4551 -3.25,3.25 v 3.375"/><path style="fill:none;stroke:#000;stroke-width:3;stroke-linecap:round;stroke-linejoin:round;stroke-miterlimit:4;stroke-dasharray:none;stroke-opacity:1" id="path5288" d="m 1055.4787,992.6896 3.375,4.25 -3.75,3.875"/><path id="path5290" d="m 1044.6035,1011.3192 h 11 c 1.7949,-2e-4 3.2498,-1.4551 3.25,-3.25 v -3.375" style="fill:none;stroke:#000;stroke-width:3;stroke-linecap:round;stroke-linejoin:round;stroke-miterlimit:4;stroke-dasharray:none;stroke-opacity:1"/><path id="path5292" d="m 1046.1248,1015.5554 -3.375,-4.25 3.75,-3.875" style="fill:none;stroke:#000;stroke-width:3;stroke-linecap:round;stroke-linejoin:round;stroke-miterlimit:4;stroke-dasharray:none;stroke-opacity:1"/></g><rect id="rect5411" width="32" height="32" x="1026.423" y="21.72" style="opacity:1;fill:none;fill-opacity:1;fill-rule:nonzero;stroke:none;stroke-width:3;stroke-linecap:round;stroke-linejoin:round;stroke-miterlimit:4;stroke-dasharray:none;stroke-dashoffset:0;stroke-opacity:1;paint-order:normal"/></g><g id="g4005"><g id="g5393" transform="matrix(0.6410961,0,0,0.6410961,389.61554,-606.18813)"><path style="fill:none;stroke:#000;stroke-width:3;stroke-linecap:round;stroke-linejoin:miter;stroke-miterlimit:4;stroke-dasharray:none;stroke-opacity:1" id="path5294" d="m 1101,997.8001 c 10.7776,0 1.9407,12.75 14.125,12.75"/><path id="path5298" d="m 1113.4787,992.6896 3.375,4.25 -3.75,3.875" style="fill:none;stroke:#000;stroke-width:3;stroke-linecap:round;stroke-linejoin:round;stroke-miterlimit:4;stroke-dasharray:none;stroke-opacity:1"/><path style="fill:none;stroke:#000;stroke-width:3;stroke-linecap:round;stroke-linejoin:round;stroke-miterlimit:4;stroke-dasharray:none;stroke-opacity:1" id="path5300" d="m 1113.4787,1006.4897 3.375,4.25 -3.75,3.875"/><path style="fill:none;stroke:#000;stroke-width:3;stroke-linecap:round;stroke-linejoin:miter;stroke-miterlimit:4;stroke-dasharray:none;stroke-opacity:1" id="path5302" d="m 1101.2501,1010.2375 c 1.479,0.07 2.6346,-0.5915 3.875,-1.6562"/><path id="path5312" d="m 1113.6825,996.9157 c -1.479,-0.07 -2.6346,0.5915 -3.875,1.6562" style="fill:none;stroke:#000;stroke-width:3;stroke-linecap:round;stroke-linejoin:miter;stroke-miterlimit:4;stroke-dasharray:none;stroke-opacity:1"/></g><rect style="opacity:1;fill:none;fill-opacity:1;fill-rule:nonzero;stroke:none;stroke-width:3;stroke-linecap:round;stroke-linejoin:round;stroke-miterlimit:4;stroke-dasharray:none;stroke-dashoffset:0;stroke-opacity:1;paint-order:normal" id="rect5413" width="32" height="32" x="1084.537" y="21.249"/></g><g id="g3982"><g id="g5397" transform="matrix(0.26732473,0,0,0.26732473,607.52158,-229.58324)"><rect style="opacity:1;fill:#000;fill-opacity:1;fill-rule:nonzero;stroke:none;stroke-width:3.19984221;stroke-linecap:round;stroke-linejoin:round;stroke-miterlimit:4;stroke-dasharray:none;stroke-dashoffset:0;stroke-opacity:1;paint-order:normal" id="rect5269" width="14.496" height="54.801" x="877.343" y="971.002"/><rect id="rect5271" width="14.496" height="54.801" x="904.989" y="971.002" style="opacity:1;fill:#000;fill-opacity:1;fill-rule:nonzero;stroke:none;stroke-width:3.19984221;stroke-linecap:round;stroke-linejoin:round;stroke-miterlimit:4;stroke-dasharray:none;stroke-dashoffset:0;stroke-opacity:1;paint-order:normal"/></g><rect id="rect5458" width="32" height="32" x="831.69" y="21.314" style="opacity:1;fill:none;fill-opacity:1;fill-rule:nonzero;stroke:none;stroke-width:1.49999988;stroke-linecap:round;stroke-linejoin:round;stroke-miterlimit:4;stroke-dasharray:none;stroke-dashoffset:0;stroke-opacity:1;paint-order:normal"/></g></svg>